<svg width="186" height="115" viewBox="0 0 186 115" fill="none" xmlns="http://www.w3.org/2000/svg">
<path d="M123.623 33.3516H25.0819C24.0671 33.3513 23.0642 33.5704 22.1418 33.9938C21.2195 34.4173 20.3997 35.035 19.7384 35.8048C19.077 36.5746 18.5898 37.4783 18.3102 38.4539C18.0306 39.4295 17.9653 40.454 18.1185 41.4572L29.1347 113.566H141.929L130.587 39.3518C130.336 37.6839 129.496 36.1612 128.218 35.0602C126.94 33.9592 125.31 33.353 123.623 33.3516Z" fill="url(#paint0_linear_1_570)"/>
<path d="M185.5 113.896H29.1556" stroke="#383838" stroke-miterlimit="10"/>
<path d="M28.6397 85.726C18.2036 85.726 9.74348 77.2659 9.74348 66.8298C9.74348 56.3937 18.2036 47.9336 28.6397 47.9336C39.0758 47.9336 47.5359 56.3937 47.5359 66.8298C47.5359 77.2659 39.0758 85.726 28.6397 85.726Z" stroke="#383838" stroke-linecap="round" stroke-linejoin="round"/>
<path d="M15.1414 80.0449L1.49927 93.687" stroke="#383838" stroke-linecap="round" stroke-linejoin="round"/>
<path d="M91.679 31.6989C92.0021 31.8297 92.2198 32.0109 92.3319 32.2424C92.4441 32.4739 92.4878 32.7424 92.4632 33.048C92.4346 33.3205 92.3507 33.5493 92.2115 33.7343C92.0787 33.9199 91.9098 34.0665 91.7048 34.1743C91.4998 34.2821 91.2715 34.3552 91.0197 34.3938C90.7679 34.4324 90.5121 34.4411 90.252 34.4201C90.005 34.4002 89.7566 34.3572 89.5067 34.2913C89.2634 34.2258 89.0454 34.1297 88.8528 34.0029C88.6602 33.8761 88.503 33.7162 88.3812 33.5232C88.2658 33.3306 88.213 33.0941 88.2225 32.8135L89.0319 32.8789C89.0469 33.0175 89.0994 33.1362 89.1896 33.2351C89.2803 33.3275 89.3883 33.4082 89.5136 33.4772C89.6459 33.5402 89.7825 33.5905 89.9234 33.6281C90.0713 33.6596 90.2038 33.6802 90.3208 33.6896C90.4573 33.7006 90.5979 33.7022 90.7425 33.6942C90.8936 33.6868 91.0332 33.6588 91.1615 33.6103C91.2897 33.5617 91.397 33.4886 91.4835 33.3909C91.5704 33.2867 91.6207 33.1501 91.6343 32.981C91.6453 32.8445 91.6261 32.7187 91.5765 32.6034C91.5274 32.4817 91.4435 32.3866 91.3247 32.3181C91.2184 32.2572 91.094 32.2177 90.9515 32.1996C90.8095 32.1751 90.6768 32.1578 90.5533 32.1478L89.6367 32.0738L89.6957 31.3425L90.4466 31.4031C90.5701 31.4131 90.6976 31.4136 90.8292 31.4046C90.9613 31.3891 91.0818 31.3563 91.1905 31.3062C91.3057 31.2566 91.3995 31.1889 91.4719 31.1031C91.5513 31.0114 91.6013 30.878 91.622 30.703C91.633 30.5665 91.6097 30.4501 91.552 30.3539C91.5009 30.2581 91.4254 30.1801 91.3256 30.1197C91.2328 30.0533 91.1222 30.0051 90.9937 29.9751C90.8723 29.9391 90.7498 29.9161 90.6263 29.9062C90.5093 29.8967 90.385 29.8965 90.2534 29.9055C90.1224 29.908 89.9995 29.9308 89.8848 29.9739C89.7706 30.0105 89.6711 30.0679 89.5862 30.1461C89.5014 30.2243 89.4437 30.3309 89.4132 30.4658L88.5941 30.3997C88.6216 30.1402 88.7009 29.9274 88.8321 29.7613C88.9703 29.5892 89.1379 29.4588 89.3348 29.37C89.5323 29.2747 89.7466 29.2135 89.9778 29.1864C90.216 29.1533 90.4489 29.1459 90.6764 29.1643C90.904 29.1827 91.1264 29.2235 91.3437 29.2869C91.5676 29.3508 91.7628 29.445 91.9294 29.5697C92.0965 29.6879 92.2283 29.8392 92.3246 30.0237C92.4209 30.2081 92.4586 30.4304 92.4376 30.6904C92.4187 30.9244 92.3467 31.128 92.2215 31.3011C92.0962 31.4742 91.9154 31.6068 91.679 31.6989ZM96.8493 34.2364C96.7267 34.377 96.5902 34.487 96.4399 34.5665C96.2895 34.6459 96.1342 34.7054 95.974 34.7448C95.8203 34.7847 95.6646 34.8081 95.507 34.815C95.3559 34.8225 95.2056 34.8201 95.0561 34.8081C94.8156 34.7886 94.5904 34.741 94.3806 34.6652C94.1708 34.5894 93.9834 34.4793 93.8184 34.3352C93.6599 34.1915 93.5365 34.018 93.4482 33.8145C93.3665 33.6116 93.3356 33.3867 93.3555 33.1397C93.3791 32.8471 93.4508 32.6075 93.5706 32.4209C93.6974 32.2283 93.8567 32.0776 94.0487 31.9688C94.2407 31.86 94.4556 31.7923 94.6933 31.7657C94.938 31.7331 95.1936 31.7275 95.4602 31.7491L96.9716 31.8711C97.0068 31.4356 96.9403 31.0834 96.7723 30.8147C96.6047 30.5394 96.2972 30.3772 95.8497 30.3279C95.5767 30.3059 95.3325 30.332 95.1171 30.4062C94.9017 30.4804 94.7467 30.6184 94.6519 30.8201L93.7645 30.7485C93.8289 30.5181 93.9359 30.3272 94.0856 30.1757C94.2357 30.0177 94.4093 29.8943 94.6062 29.8055C94.8036 29.7102 95.015 29.6455 95.2402 29.6113C95.4654 29.5772 95.6885 29.569 95.9096 29.5869C96.2931 29.6178 96.6096 29.7088 96.8592 29.8598C97.1157 30.0049 97.3169 30.188 97.4626 30.4091C97.6088 30.6238 97.7027 30.88 97.744 31.1778C97.7854 31.4755 97.7914 31.8064 97.762 32.1705L97.5376 34.9496L96.8453 34.8936L96.8493 34.2364ZM96.0088 32.4902C95.8528 32.4776 95.6705 32.4662 95.462 32.4559C95.2605 32.4396 95.0639 32.4433 94.8722 32.4671C94.6805 32.4909 94.5212 32.5598 94.3942 32.6739C94.2737 32.7885 94.2053 32.9465 94.1891 33.1481C94.177 33.2976 94.196 33.4267 94.2461 33.5355C94.2962 33.6442 94.3671 33.7382 94.4589 33.8176C94.5571 33.8975 94.6699 33.959 94.7973 34.002C94.9247 34.045 95.0567 34.072 95.1932 34.083C95.6807 34.1224 96.0737 34.0364 96.3722 33.8249C96.6776 33.6075 96.852 33.2715 96.8952 32.817L96.9157 32.5634L96.0088 32.4902ZM103.628 35.5198C103.355 35.4978 103.081 35.4495 102.805 35.3749C102.537 35.3009 102.287 35.1924 102.056 35.0494C101.833 34.9005 101.645 34.7152 101.493 34.4935C101.347 34.2724 101.264 34.0072 101.243 33.698L102.12 33.7689C102.165 33.9426 102.242 34.0895 102.35 34.2094C102.465 34.3234 102.595 34.419 102.739 34.496C102.89 34.5736 103.049 34.6323 103.215 34.6719C103.382 34.7116 103.544 34.7377 103.7 34.7503C103.843 34.7618 104.006 34.762 104.191 34.7507C104.375 34.7394 104.548 34.6977 104.711 34.6258C104.88 34.5544 105.024 34.4417 105.141 34.2876C105.265 34.1275 105.338 33.9109 105.36 33.6379C105.381 33.3779 105.346 33.1656 105.254 33.0012C105.169 32.8373 105.049 32.7066 104.893 32.6089C104.744 32.5118 104.57 32.4421 104.371 32.3999C104.178 32.3581 103.98 32.3291 103.779 32.3128L103.116 32.2593L103.177 31.4987L103.577 31.531C103.753 31.5451 103.915 31.555 104.065 31.5606C104.216 31.5597 104.385 31.5275 104.574 31.4642C104.79 31.3835 104.966 31.2604 105.104 31.0948C105.242 30.9228 105.324 30.72 105.349 30.4865C105.368 30.2525 105.345 30.0576 105.279 29.9018C105.213 29.7459 105.118 29.6205 104.995 29.5255C104.872 29.4305 104.73 29.3634 104.57 29.3243C104.41 29.2787 104.245 29.2491 104.076 29.2354C103.94 29.2244 103.796 29.2291 103.643 29.2495C103.498 29.264 103.358 29.2985 103.223 29.353C103.094 29.408 102.977 29.4868 102.87 29.5895C102.764 29.6856 102.686 29.8069 102.635 29.9532L101.786 29.8847C101.848 29.6018 101.959 29.3654 102.118 29.1754C102.278 28.9855 102.467 28.8339 102.685 28.7207C102.91 28.608 103.152 28.5326 103.41 28.4946C103.675 28.4571 103.94 28.4491 104.207 28.4706C104.499 28.4942 104.77 28.5488 105.018 28.6342C105.273 28.7137 105.493 28.8329 105.676 28.9916C105.86 29.1439 105.998 29.3383 106.091 29.5747C106.189 29.8117 106.225 30.0927 106.199 30.4177C106.189 30.5412 106.165 30.6734 106.128 30.8144C106.091 30.9488 106.031 31.0814 105.948 31.2121C105.866 31.3428 105.751 31.471 105.603 31.5964C105.456 31.7219 105.268 31.8213 105.04 31.8944C105.468 32.0141 105.784 32.2327 105.988 32.5501C106.192 32.861 106.277 33.2244 106.243 33.6405L106.24 33.6795C106.211 34.037 106.121 34.3406 105.97 34.5901C105.826 34.8337 105.637 35.031 105.402 35.1822C105.168 35.3269 104.898 35.4261 104.593 35.48C104.288 35.5339 103.966 35.5471 103.628 35.5198ZM112.85 32.7214C112.815 33.1635 112.734 33.5921 112.609 34.0073C112.49 34.423 112.314 34.7883 112.079 35.103C111.845 35.4112 111.547 35.6522 111.186 35.8259C110.826 35.9996 110.388 36.0657 109.875 36.0243C109.355 35.9823 108.931 35.8466 108.602 35.6173C108.274 35.3879 108.019 35.1023 107.837 34.7605C107.656 34.4122 107.54 34.0298 107.488 33.6134C107.437 33.1971 107.43 32.7549 107.468 32.2868C107.506 31.8187 107.583 31.3834 107.701 30.9806C107.819 30.5714 107.995 30.2127 108.229 29.9044C108.464 29.5962 108.761 29.3552 109.122 29.1815C109.483 29.0013 109.924 28.9322 110.444 28.9742C110.958 29.0157 111.379 29.1511 111.707 29.3804C112.035 29.6098 112.29 29.8986 112.471 30.2469C112.652 30.5953 112.768 30.9841 112.819 31.4135C112.875 31.8434 112.886 32.2794 112.85 32.7214ZM108.336 32.3569C108.31 32.6689 108.307 32.9893 108.327 33.318C108.346 33.6467 108.41 33.9496 108.518 34.2266C108.627 34.5036 108.791 34.7361 109.012 34.924C109.238 35.1125 109.547 35.2224 109.937 35.2539C110.321 35.2849 110.636 35.2253 110.884 35.0752C111.138 34.9256 111.341 34.7228 111.492 34.4668C111.644 34.2107 111.756 33.922 111.827 33.6007C111.899 33.2793 111.948 32.9626 111.973 32.6506C111.997 32.345 112 32.0279 111.981 31.6992C111.962 31.3705 111.898 31.0676 111.789 30.7906C111.681 30.5071 111.514 30.2711 111.287 30.0826C111.067 29.8882 110.765 29.7755 110.382 29.7446C109.992 29.7131 109.669 29.7754 109.415 29.9315C109.167 30.0816 108.967 30.2879 108.815 30.5504C108.664 30.8065 108.552 31.0952 108.48 31.4165C108.408 31.7379 108.36 32.0513 108.336 32.3569ZM118.59 36.7083C118.18 36.6753 117.831 36.5817 117.543 36.4275C117.254 36.2733 117.022 36.0714 116.846 35.8216C116.669 35.5718 116.545 35.2837 116.474 34.9573C116.402 34.6309 116.381 34.2792 116.412 33.9021C116.441 33.5381 116.521 33.201 116.65 32.8909C116.781 32.5742 116.956 32.307 117.176 32.0893C117.397 31.865 117.666 31.697 117.983 31.5851C118.3 31.4668 118.676 31.4252 119.112 31.4604C119.372 31.4814 119.6 31.5292 119.797 31.604C119.994 31.6723 120.176 31.7753 120.341 31.913C120.514 32.0447 120.657 32.2133 120.771 32.4188C120.886 32.6243 120.961 32.8692 120.997 33.1535L120.148 33.085C120.074 32.7911 119.934 32.5737 119.73 32.4329C119.532 32.2926 119.29 32.2141 119.003 32.1975C118.723 32.1749 118.472 32.2102 118.248 32.3034C118.032 32.3907 117.852 32.5168 117.708 32.6818C117.57 32.8473 117.462 33.0448 117.385 33.2741C117.308 33.4969 117.26 33.7285 117.24 33.9691C117.22 34.2226 117.23 34.4655 117.27 34.6977C117.317 34.9305 117.395 35.1396 117.504 35.3251C117.62 35.5046 117.775 35.6545 117.968 35.7748C118.162 35.8886 118.398 35.9568 118.678 35.9794C118.814 35.9904 118.949 35.9881 119.081 35.9726C119.22 35.9577 119.346 35.9254 119.462 35.8758C119.584 35.8202 119.692 35.7439 119.784 35.6467C119.877 35.5495 119.949 35.4277 120 35.2813L120.859 35.3506C120.785 35.613 120.672 35.8361 120.52 36.0201C120.375 36.1982 120.199 36.3443 119.994 36.4586C119.789 36.5663 119.567 36.64 119.328 36.6796C119.089 36.7192 118.843 36.7288 118.59 36.7083ZM122.616 34.6976C122.618 34.9267 122.646 35.1416 122.702 35.3424C122.765 35.5373 122.855 35.7114 122.974 35.8649C123.092 36.0185 123.242 36.1451 123.424 36.2448C123.613 36.3386 123.834 36.3957 124.087 36.4161C124.211 36.4261 124.338 36.4266 124.47 36.4176C124.608 36.4026 124.738 36.3739 124.86 36.3313C124.981 36.2822 125.091 36.2159 125.19 36.1322C125.288 36.0486 125.365 35.9436 125.421 35.8172L126.27 35.8857C126.191 36.128 126.073 36.3344 125.915 36.5049C125.764 36.6759 125.586 36.812 125.382 36.9133C125.184 37.0151 124.966 37.0858 124.727 37.1254C124.489 37.1585 124.249 37.1653 124.009 37.1459C123.599 37.1128 123.247 37.019 122.952 36.8643C122.663 36.7101 122.427 36.5111 122.244 36.2673C122.062 36.017 121.934 35.7287 121.863 35.4023C121.791 35.0694 121.771 34.7111 121.802 34.3276C121.833 33.944 121.914 33.5972 122.043 33.2871C122.18 32.971 122.359 32.704 122.579 32.4863C122.799 32.2685 123.061 32.1064 123.364 32C123.667 31.8937 124.02 31.8567 124.423 31.8893C124.833 31.9223 125.181 32.0322 125.466 32.2189C125.752 32.4055 125.976 32.6395 126.136 32.9207C126.297 33.1954 126.401 33.4885 126.448 33.7998C126.501 34.1116 126.511 34.397 126.477 34.656C126.472 34.7145 126.464 34.7727 126.453 34.8307C126.448 34.8892 126.44 34.9475 126.429 35.0055L122.616 34.6976ZM125.668 34.2177C125.69 33.7811 125.582 33.4158 125.345 33.1218C125.107 32.8278 124.77 32.6632 124.334 32.628C124.094 32.6086 123.879 32.6305 123.691 32.6938C123.503 32.7571 123.341 32.8521 123.207 32.9786C123.072 33.1052 122.962 33.2565 122.876 33.4328C122.79 33.6025 122.729 33.7841 122.694 33.9776L125.668 34.2177ZM127.38 37.3592L127.795 32.2204L128.624 32.2873L128.445 34.5008L129.342 34.5733L131.042 32.4826L131.988 32.559L130.074 34.8679L131.719 37.7096L130.744 37.6309L129.381 35.3027L128.387 35.2224L128.209 37.4262L127.38 37.3592ZM136.547 32.9271L137.483 33.0027L135.703 36.9321C135.609 37.1338 135.505 37.3643 135.392 37.6235C135.287 37.8767 135.168 38.1288 135.037 38.3799C134.911 38.6381 134.771 38.8786 134.615 39.1016C134.467 39.3252 134.305 39.5019 134.131 39.6318C133.873 39.8269 133.632 39.9415 133.406 39.9756C133.181 40.0163 132.928 40.0254 132.648 40.0028L132.473 39.9886L132.537 39.1988C132.771 39.2177 132.971 39.2077 133.138 39.1688C133.304 39.1364 133.45 39.0729 133.575 38.9784C133.707 38.8843 133.822 38.7627 133.919 38.6135C134.022 38.4649 134.128 38.2869 134.237 38.0798L132.364 32.5893L133.339 32.6681L134.774 37.1417L136.547 32.9271ZM137.836 38.2035L138.251 33.0647L139.079 33.1316L138.898 35.3841L141.472 35.592L141.654 33.3395L142.483 33.4064L142.068 38.5452L141.239 38.4783L141.413 36.3233L138.839 36.1154L138.664 38.2704L137.836 38.2035ZM144.286 34.6906C144.308 34.5026 144.327 34.3143 144.342 34.1258C144.357 33.9373 144.372 33.7487 144.388 33.5602L148.034 33.8547L147.678 38.272L148.351 38.3263L148.165 40.6275L147.365 40.563L147.493 38.9833L143.739 38.6802L143.611 40.2598L142.811 40.1953L142.997 37.894C143.257 37.915 143.472 37.8145 143.64 37.5926C143.741 37.4699 143.828 37.2904 143.899 37.0541C143.971 36.8113 144.031 36.5544 144.079 36.2834C144.136 35.987 144.179 35.6928 144.209 35.4008C144.247 35.1028 144.272 34.8661 144.286 34.6906ZM147.147 34.5191L145.118 34.3553C145.09 34.6278 145.059 34.9329 145.025 35.2704C144.991 35.6079 144.953 35.9221 144.909 36.2131C144.892 36.3426 144.871 36.4848 144.846 36.6398C144.82 36.7882 144.785 36.9424 144.739 37.1023C144.701 37.2562 144.646 37.4121 144.574 37.5699C144.509 37.7282 144.422 37.8717 144.314 38.0003L146.849 38.205L147.147 34.5191Z" fill="#383838"/>
<rect x="81.8231" y="20.2457" width="72.3713" height="21.0114" rx="10.5057" transform="rotate(4.61647 81.8231 20.2457)" stroke="#383838"/>
<rect x="55.3367" y="7.61719" width="59.9199" height="22.0114" rx="11.0057" transform="rotate(-6.96632 55.3367 7.61719)" fill="white"/>
<path d="M61.8827 13.8441L66.5536 13.2734L66.6473 14.0406L62.8213 14.508L63.074 16.5764L64.6374 16.3854C64.9741 16.3442 65.2977 16.331 65.6083 16.3456C65.9246 16.3529 66.2079 16.4136 66.4584 16.5275C66.7145 16.6342 66.9292 16.8051 67.1025 17.0402C67.275 17.2688 67.3857 17.5838 67.4348 17.9851C67.4862 18.4059 67.4602 18.7573 67.3566 19.0394C67.2523 19.3149 67.0903 19.5483 66.8705 19.7394C66.6573 19.9297 66.3964 20.0798 66.0879 20.1898C65.7793 20.2998 65.4471 20.3765 65.091 20.42L62.7216 20.7095L61.8827 13.8441ZM63.4727 19.8392L64.8905 19.6659C65.1235 19.6375 65.3485 19.5968 65.5655 19.544C65.7881 19.484 65.9812 19.398 66.145 19.286C66.3079 19.1675 66.4309 19.0178 66.5139 18.8368C66.5969 18.6559 66.6214 18.4262 66.5874 18.1478C66.5534 17.8694 66.4751 17.6589 66.3525 17.5162C66.2292 17.367 66.0786 17.2638 65.9008 17.2067C65.7222 17.1431 65.5216 17.1151 65.2991 17.1225C65.0823 17.1228 64.8607 17.1367 64.6341 17.1644L63.1678 17.3435L63.4727 19.8392ZM69.2467 17.6258C69.2938 17.85 69.3648 18.0548 69.4597 18.2403C69.5604 18.4186 69.6841 18.571 69.831 18.6976C69.9779 18.8242 70.1503 18.9181 70.3483 18.9793C70.552 19.0333 70.7801 19.0449 71.0326 19.014C71.1556 18.999 71.2807 18.9738 71.4078 18.9386C71.5405 18.8961 71.662 18.8418 71.7722 18.7758C71.8816 18.7033 71.9761 18.6162 72.0557 18.5145C72.1352 18.4128 72.1898 18.2944 72.2193 18.1594L73.0641 18.0562C73.0359 18.3093 72.9616 18.5352 72.8414 18.7339C72.7276 18.9317 72.5807 19.1008 72.4007 19.2411C72.2272 19.3805 72.0275 19.4936 71.8016 19.5804C71.5748 19.6606 71.3417 19.7154 71.1022 19.7447C70.6943 19.7945 70.3304 19.7733 70.0103 19.681C69.6967 19.5879 69.4257 19.4403 69.1973 19.2383C68.9681 19.0297 68.7856 18.7728 68.6498 18.4674C68.5131 18.1556 68.4214 17.8087 68.3748 17.4268C68.3281 17.0448 68.3372 16.6889 68.402 16.359C68.4725 16.0219 68.5938 15.7246 68.7661 15.467C68.9383 15.2094 69.1621 14.9981 69.4376 14.833C69.7131 14.6679 70.0516 14.5609 70.4529 14.5118C70.8608 14.462 71.2235 14.4998 71.541 14.6253C71.8586 14.7507 72.1242 14.9351 72.3379 15.1784C72.5508 15.4152 72.7115 15.6814 72.8199 15.9769C72.9347 16.2717 73.0015 16.5493 73.0202 16.8099C73.0273 16.8681 73.0312 16.9268 73.0319 16.9859C73.039 17.0441 73.0429 17.1028 73.0435 17.1618L69.2467 17.6258ZM72.14 16.5429C72.0741 16.1108 71.895 15.7745 71.6028 15.5343C71.3107 15.294 70.9477 15.2004 70.514 15.2534C70.2744 15.2827 70.0688 15.3472 69.897 15.4471C69.7252 15.5469 69.5862 15.6723 69.4798 15.8233C69.3734 15.9742 69.2957 16.1447 69.2466 16.3347C69.1967 16.5182 69.174 16.7082 69.1783 16.9048L72.14 16.5429ZM76.6396 19.0681C76.2317 19.1179 75.871 19.0963 75.5574 19.0032C75.2438 18.9101 74.9756 18.7589 74.7529 18.5496C74.5302 18.3402 74.351 18.0829 74.2151 17.7776C74.0792 17.4722 73.9884 17.1318 73.9425 16.7563C73.8982 16.3938 73.9085 16.0476 73.9733 15.7177C74.0373 15.3814 74.1554 15.0844 74.3276 14.8268C74.499 14.5628 74.7286 14.3442 75.0162 14.1711C75.3031 13.9915 75.6634 13.8752 76.0971 13.8222C76.3561 13.7905 76.5895 13.7916 76.7973 13.8253C77.0043 13.8526 77.2027 13.9171 77.3925 14.0187C77.588 14.1131 77.7624 14.2495 77.9156 14.4279C78.0688 14.6063 78.1915 14.8311 78.2838 15.1023L77.439 15.2056C77.3071 14.9326 77.1268 14.7476 76.8981 14.6507C76.6759 14.553 76.4228 14.5248 76.1388 14.5661C75.8604 14.6001 75.6211 14.6852 75.4209 14.8214C75.2264 14.9503 75.0751 15.11 74.967 15.3006C74.8654 15.4905 74.7996 15.7054 74.7699 15.9456C74.7393 16.1793 74.7386 16.4159 74.7679 16.6555C74.7987 16.9079 74.8571 17.1439 74.9431 17.3634C75.0355 17.582 75.1539 17.7713 75.2983 17.931C75.4483 18.0835 75.63 18.1993 75.8433 18.2784C76.0559 18.3509 76.3013 18.3702 76.5797 18.3362C76.7157 18.3196 76.8468 18.2904 76.9731 18.2487C77.1059 18.2062 77.2238 18.1491 77.3267 18.0774C77.4353 17.9984 77.5254 17.902 77.5969 17.7881C77.6684 17.6743 77.7144 17.5405 77.7351 17.3869L78.5896 17.2825C78.5703 17.5542 78.5045 17.7955 78.3923 18.0063C78.2857 18.2099 78.1433 18.3883 77.9649 18.5415C77.7857 18.6882 77.5831 18.8049 77.3572 18.8917C77.1313 18.9784 76.8921 19.0372 76.6396 19.0681ZM79.815 18.6209L79.1897 13.5034L83.4332 12.9849L84.0585 18.1024L83.2331 18.2033L82.6968 13.8141L80.1041 14.1309L80.6404 18.5201L79.815 18.6209ZM85.5453 15.4864C85.5207 15.0164 85.488 14.5604 85.4471 14.1186C85.4128 13.6761 85.3704 13.2213 85.3199 12.7544L88.874 12.3201L89.4993 17.4376L88.6739 17.5385L88.1375 13.1493L86.2148 13.3842L86.3731 15.405C86.3917 15.6655 86.3982 15.9604 86.3924 16.2896C86.3867 16.6189 86.3288 16.9249 86.2188 17.2077C86.1317 17.4089 86.0014 17.5792 85.8279 17.7187C85.6544 17.8582 85.4446 17.9429 85.1986 17.973L84.8976 18.0098L84.8086 17.2815C85.0676 17.2498 85.2613 17.1145 85.3898 16.8754C85.4646 16.7348 85.5128 16.5384 85.5346 16.286C85.5563 16.0337 85.5599 15.7672 85.5453 15.4864ZM94.0864 16.2168C93.9945 16.3792 93.8829 16.5144 93.7516 16.6224C93.6202 16.7304 93.48 16.8198 93.331 16.8906C93.1884 16.9606 93.0406 17.0148 92.8876 17.0532C92.7411 17.0908 92.5934 17.1187 92.4445 17.1369C92.205 17.1662 91.9748 17.1647 91.7541 17.1326C91.5333 17.1004 91.3277 17.0303 91.137 16.9221C90.9529 16.8132 90.7972 16.668 90.6699 16.4864C90.549 16.3041 90.4736 16.0899 90.4435 15.8439C90.4079 15.5526 90.4301 15.3035 90.5099 15.0966C90.5954 14.8825 90.7213 14.7029 90.8876 14.5577C91.0538 14.4126 91.2507 14.3031 91.4782 14.2293C91.7114 14.1482 91.9607 14.0915 92.2261 14.0591L93.7313 13.8752C93.6783 13.4414 93.5425 13.1098 93.3239 12.8802C93.1045 12.6442 92.7707 12.547 92.3224 12.5887C92.0505 12.6219 91.8165 12.6965 91.6205 12.8124C91.4244 12.9284 91.3001 13.0947 91.2478 13.3113L90.3641 13.4193C90.3809 13.1807 90.4474 12.9722 90.5636 12.7937C90.679 12.6088 90.8242 12.4531 90.9993 12.3266C91.1736 12.1936 91.3676 12.0877 91.5814 12.009C91.7952 11.9303 92.0121 11.8776 92.2323 11.8507C92.6142 11.804 92.9426 11.8296 93.2173 11.9274C93.4978 12.018 93.7316 12.157 93.9187 12.3443C94.1051 12.5253 94.2485 12.7574 94.3488 13.0408C94.4491 13.3242 94.5214 13.6472 94.5657 14.0097L94.9039 16.7773L94.2144 16.8615L94.0864 16.2168ZM92.9124 14.675C92.7571 14.6939 92.5762 14.7193 92.3698 14.7511C92.1691 14.7756 91.9773 14.8188 91.7943 14.8806C91.6113 14.9423 91.4691 15.0419 91.3676 15.1791C91.2725 15.3155 91.2373 15.4841 91.2618 15.6848C91.28 15.8337 91.3246 15.9564 91.3955 16.0528C91.4664 16.1493 91.5548 16.2272 91.6606 16.2865C91.7729 16.3451 91.8957 16.3827 92.0291 16.3992C92.1626 16.4158 92.2973 16.4157 92.4332 16.3991C92.9187 16.3398 93.2865 16.1766 93.5364 15.9095C93.7919 15.6352 93.8953 15.271 93.8464 14.8171L93.8155 14.5646L92.9124 14.675ZM99.3348 11.042L99.4238 11.7702L97.6662 11.985L98.2025 16.3742L97.3771 16.4751L96.8408 12.0859L95.0831 12.3006L94.9942 11.5723L99.3348 11.042ZM100.697 16.0695L100.071 10.952L100.897 10.8511L101.171 13.0943L103.734 12.781L103.46 10.5379L104.286 10.437L104.911 15.5545L104.086 15.6554L103.823 13.5093L101.26 13.8226L101.522 15.9686L100.697 16.0695ZM107.836 9.94406C108.244 9.89422 108.605 9.91585 108.918 10.0089C109.232 10.102 109.503 10.2528 109.733 10.4614C109.968 10.6691 110.154 10.9289 110.291 11.2407C110.433 11.5453 110.528 11.8885 110.574 12.2705C110.621 12.6524 110.612 13.0116 110.548 13.3479C110.49 13.677 110.372 13.9707 110.193 14.2291C110.02 14.4802 109.789 14.6891 109.501 14.8557C109.212 15.0224 108.864 15.1306 108.456 15.1805C108.048 15.2303 107.684 15.2091 107.364 15.1168C107.051 15.0237 106.777 14.8765 106.542 14.6752C106.313 14.4667 106.127 14.2101 105.984 13.9056C105.848 13.5938 105.756 13.2469 105.709 12.8649C105.663 12.483 105.669 12.1275 105.727 11.7984C105.791 11.462 105.909 11.1651 106.081 10.9075C106.26 10.6491 106.494 10.4366 106.782 10.27C107.07 10.1033 107.422 9.99468 107.836 9.94406ZM108.367 14.4522C108.646 14.4181 108.879 14.3403 109.068 14.2187C109.263 14.0963 109.415 13.943 109.524 13.7589C109.639 13.5675 109.712 13.3549 109.742 13.1212C109.779 12.8867 109.781 12.6368 109.749 12.3713C109.717 12.1124 109.655 11.8736 109.563 11.6549C109.476 11.429 109.355 11.2401 109.198 11.0884C109.047 10.9295 108.862 10.8141 108.643 10.7423C108.431 10.6697 108.185 10.6504 107.907 10.6844C107.629 10.7185 107.395 10.7963 107.206 10.9179C107.017 11.0395 106.866 11.196 106.751 11.3874C106.642 11.5716 106.57 11.7841 106.533 12.0251C106.503 12.2588 106.503 12.5051 106.535 12.7641C106.567 13.0295 106.626 13.2719 106.712 13.4914C106.805 13.7101 106.926 13.8989 107.077 14.0579C107.234 14.2096 107.418 14.3217 107.631 14.3943C107.843 14.4669 108.089 14.4862 108.367 14.4522Z" fill="#383838"/>
<defs>
<linearGradient id="paint0_linear_1_570" x1="61.2862" y1="41.5478" x2="63.073" y2="76.1082" gradientUnits="userSpaceOnUse">
<stop stop-color="#FBFFDE"/>
<stop offset="1" stop-color="#B6FC86"/>
</linearGradient>
</defs>
</svg>
